<?xml version="1.0" encoding="UTF-8"?>
<!DOCTYPE svg PUBLIC "-//W3C//DTD SVG 1.1//EN" "http://www.w3.org/Graphics/SVG/1.1/DTD/svg11.dtd">
<!-- Creator: CorelDRAW X7 -->
<svg xmlns="http://www.w3.org/2000/svg" xml:space="preserve" width="85mm" height="40mm" version="1.1" style="shape-rendering:geometricPrecision; text-rendering:geometricPrecision; image-rendering:optimizeQuality; fill-rule:evenodd; clip-rule:evenodd"
viewBox="0 0 8500 4000"
 xmlns:xlink="http://www.w3.org/1999/xlink">
 <defs>
  <style type="text/css">
   <![CDATA[
    .str0 {stroke:#910045;stroke-width:8.82}
    .str1 {stroke:#910045;stroke-width:7.62}
    .fil0 {fill:#910045;fill-rule:nonzero}
   ]]>
  </style>
 </defs>
 <g id="Слой_x0020_1">
  <metadata id="CorelCorpID_0Corel-Layer"/>
  <g id="_268316504">
   <path class="fil0 str0" d="M2927 691c-7,-8 -16,-13 -25,-14 -2,0 -108,-11 -256,-17l0 -527c0,-13 -7,-25 -18,-32 -11,-6 -25,-6 -37,0l-429 241c-157,-101 -389,-215 -635,-215l-56 0c-246,0 -477,114 -634,215l-430 -241c-11,-6 -25,-6 -37,0 -11,7 -18,19 -18,32l0 528c-132,7 -224,16 -225,16 -20,2 -35,20 -33,40 2,27 53,540 258,872l0 378c-16,-5 -26,-8 -29,-8 -11,-3 -22,-1 -31,6 -9,7 -14,17 -15,28 -1,32 -29,797 272,1236 235,343 524,524 686,605 145,81 250,119 257,121 4,2 8,2 12,2 5,0 10,-1 14,-2 7,-3 104,-43 238,-122 163,-82 450,-262 684,-604 39,-56 72,-118 101,-183 74,-146 119,-299 130,-457 52,-308 42,-577 41,-596 0,-11 -6,-21 -15,-28 -9,-7 -20,-9 -31,-6 -2,0 -9,2 -20,5l0 -328c76,-111 141,-266 196,-463 66,-237 91,-446 92,-455 2,-10 -1,-19 -7,-27zm-2501 -495l0 0 394 221c12,7 27,6 38,-1 111,-73 264,-156 433,-194l0 265c0,21 17,37 37,37 21,0 37,-16 37,-37l0 -279c32,-4 65,-7 97,-7l0 389c0,21 17,38 37,38 21,0 37,-17 37,-38l0 -389c33,0 65,3 97,7l0 279c0,21 17,37 37,37 21,0 37,-16 37,-37l0 -265c169,38 323,121 433,194 11,7 26,8 38,1l394 -221 0 461c-37,-1 -76,-1 -116,-1 -353,0 -592,44 -710,131 -101,75 -173,175 -214,285 -8,14 -15,29 -22,45 -36,-128 -113,-245 -228,-330 -117,-87 -356,-131 -710,-131 -50,0 -100,1 -146,2l0 -462zm1571 1586l0 0c-66,0 -147,-26 -212,-52 -41,-30 -78,-67 -110,-111 -114,-154 -136,-348 -76,-516 79,-139 228,-234 398,-234 252,0 457,205 457,457 0,252 -205,456 -457,456zm-986 0l0 0c-252,0 -457,-204 -457,-456 0,-252 205,-457 457,-457 220,0 404,157 447,365 13,132 -20,270 -104,385 -25,34 -53,65 -84,92 -67,30 -175,71 -259,71zm402 -119l0 0c48,-65 81,-137 101,-211 19,74 53,146 101,211 6,8 12,15 18,23 -2,1 -3,3 -4,5l-125 165 -119 -158c10,-11 19,-23 28,-35zm-841 -933l0 0c333,0 563,40 666,117 1,0 1,0 1,0 -69,-33 -147,-52 -228,-52 -293,0 -531,238 -531,531 0,246 169,454 398,513 -105,-7 -207,-43 -298,-105 -292,-199 -388,-828 -408,-987 69,-6 226,-17 400,-17zm772 3029l0 0c-2,16 -4,30 -5,42 -16,-7 -36,-16 -58,-27 -30,-16 -61,-34 -94,-54 211,-543 1,-1156 -474,-1519 196,111 413,282 531,533 190,404 127,839 100,1025zm-734 -571l0 0c-232,-339 -258,-903 -259,-1111 660,277 1002,986 772,1602 -50,-34 -103,-72 -155,-114 -100,-81 -190,-167 -268,-257 -30,-38 -60,-78 -90,-120zm1041 613l0 0c-2,-12 -4,-26 -6,-42 -27,-185 -89,-621 100,-1025 118,-251 336,-422 532,-533 -475,362 -685,974 -475,1517 -31,20 -61,38 -89,54 -24,12 -45,22 -62,29zm776 -691l0 0c-98,155 -231,301 -392,437 -57,48 -115,91 -170,129 -228,-616 115,-1323 774,-1599 -1,193 -24,692 -212,1033zm145 -1123l0 0c-204,69 -685,272 -894,716 -198,424 -134,874 -106,1067 4,28 8,56 9,69 -1,2 -2,4 -2,6 -35,17 -61,29 -75,35 -18,-6 -51,-20 -95,-41 0,-12 5,-41 9,-69 27,-193 92,-643 -107,-1067 -205,-438 -676,-642 -885,-713l0 -298c34,40 71,75 113,103 115,78 246,120 379,120 146,0 283,-50 392,-141 11,-5 21,-10 29,-14l135 180c7,9 18,15 30,15 12,0 23,-6 30,-15l135 -180c20,10 49,23 84,37 101,71 223,110 353,110l0 0c132,0 264,-38 383,-111 28,-18 56,-41 83,-69l0 260zm199 -833l0 0c-84,301 -195,501 -321,579 -91,56 -190,89 -290,98 213,-69 368,-269 368,-505 0,-293 -238,-531 -531,-531 -59,0 -116,10 -169,28 116,-61 332,-93 628,-93 174,0 330,11 400,17 -10,71 -37,233 -85,407z"/>
   <path class="fil0" d="M1009 1001c-177,0 -321,144 -321,321 0,178 144,321 321,321 178,0 321,-143 321,-321 0,-177 -143,-321 -321,-321zm0 440l0 0c-65,0 -118,-53 -118,-119 0,-65 53,-118 118,-118 66,0 119,53 119,118 0,66 -53,119 -119,119z"/>
   <path class="fil0" d="M1991 1001c-177,0 -321,144 -321,321 0,178 144,321 321,321 177,0 321,-143 321,-321 0,-177 -144,-321 -321,-321zm0 440l0 0c-65,0 -119,-53 -119,-119 0,-65 54,-118 119,-118 66,0 119,53 119,118 0,66 -53,119 -119,119z"/>
   <path class="fil0 str0" d="M3703 1035l-111 0c-7,-22 -11,-42 -11,-61 0,-13 3,-23 10,-29 6,-6 17,-9 33,-9l383 0c239,0 400,29 483,88 83,59 124,155 124,289 0,138 -49,246 -148,322 -99,77 -264,115 -494,115l-49 0c1,197 3,328 7,395l147 0c8,19 11,38 11,55 0,16 -3,28 -9,34 -7,6 -18,10 -34,10l-460 0c-8,-22 -12,-42 -12,-61 0,-13 3,-23 10,-29 7,-6 18,-9 33,-9l87 0c5,-89 8,-317 8,-683 0,-196 -3,-338 -8,-427zm297 595l0 0c141,0 239,-21 295,-61 56,-40 85,-108 85,-204 0,-92 -27,-163 -80,-213 -53,-51 -140,-76 -260,-76 -41,0 -77,3 -110,10 -5,54 -7,184 -7,387l0 157 77 0z"/>
   <path class="fil0 str0" d="M4744 1343c0,-17 7,-28 21,-33 13,-5 98,-10 253,-15 4,30 4,69 0,118 71,-48 139,-81 205,-100 65,-18 125,-27 178,-27 18,0 30,2 36,6 6,4 9,13 9,27 0,28 -4,57 -12,88 -9,32 -19,51 -32,60 -12,8 -32,14 -60,19 -28,4 -44,5 -49,3 -5,-3 -20,-20 -44,-53 -57,0 -103,18 -138,54 -35,36 -52,109 -52,218 0,196 3,342 7,437l135 0c8,16 12,34 12,53 0,18 -4,30 -11,36 -7,6 -20,10 -40,10l-405 0c-8,-21 -13,-40 -13,-58 0,-14 4,-24 11,-31 7,-7 18,-10 34,-10l66 0c6,-95 8,-220 8,-374 0,-188 -7,-297 -22,-327 -15,-30 -43,-45 -84,-45 -8,-18 -13,-37 -13,-56z"/>
   <path class="fil0 str0" d="M6117 2167c-53,31 -108,55 -165,71 -57,17 -112,25 -166,25 -86,0 -151,-21 -193,-61 -42,-41 -63,-101 -63,-181 0,-97 35,-172 104,-224 70,-52 178,-77 323,-77l141 0c-4,-113 -20,-191 -48,-235 -29,-44 -79,-66 -151,-66 -38,0 -75,4 -110,11 -19,37 -30,57 -33,60 -4,2 -22,8 -55,16 -34,9 -57,8 -70,-4 -13,-12 -26,-34 -40,-65 -14,-31 -21,-56 -21,-76 0,-12 6,-22 16,-29 11,-7 54,-16 129,-26 75,-10 155,-16 240,-16 113,0 197,20 251,59 54,39 81,110 81,214l0 295c0,137 6,220 17,250 12,30 32,43 59,37 8,14 12,28 12,41 0,22 -14,38 -41,50 -27,11 -64,17 -110,17 -22,0 -39,-3 -51,-8 -12,-5 -30,-31 -56,-78zm-19 -324l0 0c-55,-9 -112,-14 -170,-14 -73,0 -124,12 -153,36 -29,24 -44,63 -44,115 0,51 13,90 39,116 26,25 66,38 120,38 42,0 82,-8 118,-25 36,-16 61,-39 72,-69 12,-30 18,-76 18,-140l0 -57z"/>
   <path class="fil0 str0" d="M7133 1413l-51 0c-8,-18 -12,-37 -12,-56 0,-20 4,-33 11,-41 7,-7 19,-11 36,-11l251 0c8,18 12,37 12,57 0,20 -4,34 -12,41 -8,7 -23,10 -43,10l-15 0c-24,65 -73,208 -147,429 -75,222 -123,347 -145,377 -22,29 -56,44 -103,44 -76,0 -117,-4 -122,-11 -6,-7 -43,-120 -113,-339 -70,-219 -113,-349 -128,-389 -15,-41 -28,-70 -38,-87 -11,-17 -22,-28 -35,-32 -13,-4 -30,-6 -53,-6 -8,-21 -12,-40 -12,-58 0,-19 10,-31 30,-37 20,-6 76,-9 166,-9 40,0 67,3 83,10 15,6 27,17 35,33 8,16 17,54 28,113 12,59 44,181 97,365 53,185 83,277 89,277 6,0 38,-96 94,-290 57,-193 89,-323 97,-390z"/>
   <path class="fil0 str0" d="M7839 2263c-139,0 -240,-37 -306,-110 -65,-74 -97,-185 -97,-333 0,-170 39,-303 118,-397 79,-95 193,-142 341,-142 139,0 241,37 306,110 65,73 98,185 98,333 0,170 -40,302 -119,397 -78,94 -192,142 -341,142zm36 -129l0 0c73,0 126,-27 158,-82 33,-55 49,-140 49,-254 0,-131 -16,-229 -50,-293 -34,-64 -91,-96 -173,-96 -73,0 -125,28 -158,83 -33,55 -49,139 -49,254 0,131 17,229 50,293 34,63 92,95 173,95z"/>
   <g>
    <path class="fil0 str1" d="M3827 3051c-24,14 -49,25 -75,32 -25,7 -50,11 -74,11 -39,0 -68,-9 -87,-27 -19,-19 -29,-46 -29,-82 0,-44 16,-78 47,-101 32,-23 80,-35 146,-35l63 0c-1,-51 -9,-86 -21,-106 -13,-20 -36,-29 -69,-29 -17,0 -33,1 -49,5 -9,16 -14,25 -15,26 -2,2 -10,4 -25,8 -15,4 -25,3 -31,-2 -6,-5 -12,-15 -18,-29 -7,-14 -10,-26 -10,-34 0,-6 3,-11 7,-14 5,-3 25,-7 59,-11 34,-5 70,-7 108,-7 51,0 89,8 113,26 24,18 36,50 36,97l0 133c0,61 3,99 8,113 6,13 15,19 27,16 3,6 5,12 5,18 0,10 -6,18 -18,23 -12,5 -29,8 -50,8 -10,0 -17,-2 -23,-4 -5,-2 -14,-14 -25,-35zm-9 -146l0 0c-24,-4 -50,-7 -77,-7 -32,0 -55,6 -68,17 -14,11 -20,28 -20,52 0,23 6,40 17,52 12,11 30,17 55,17 19,0 36,-4 53,-11 16,-8 27,-18 32,-31 6,-14 8,-35 8,-64l0 -25z"/>
    <path class="fil0 str1" d="M4325 2701c16,29 24,59 24,92 0,49 -16,88 -47,118 -31,30 -80,45 -147,45 -31,0 -50,3 -59,10 -9,6 -14,15 -14,28 0,15 6,26 19,32 12,7 56,10 132,10 75,0 124,8 146,23 23,16 34,39 34,69 0,45 -24,81 -71,108 -48,26 -121,39 -220,39 -49,0 -81,-6 -97,-19 -17,-13 -25,-32 -25,-55 0,-18 5,-36 14,-54 9,-18 22,-36 38,-53 -14,-6 -25,-14 -34,-26 -8,-11 -12,-25 -12,-42 0,-17 5,-33 16,-47 11,-15 28,-28 50,-39 -18,-7 -33,-21 -45,-40 -11,-19 -17,-44 -17,-75 0,-51 16,-93 47,-125 31,-32 78,-49 140,-49 35,0 67,6 96,17 37,-17 60,-25 67,-25 35,0 54,1 57,2 3,2 5,5 5,10 0,7 -4,18 -11,32 -6,14 -13,21 -19,21 -6,0 -25,-7 -57,-20l-10 13zm-217 397l0 0c-10,10 -18,22 -23,34 -6,13 -8,26 -8,39 0,20 6,34 18,42 11,9 35,13 70,13 52,0 91,-6 118,-18 26,-13 39,-31 39,-54 0,-21 -9,-35 -29,-44 -19,-8 -81,-12 -185,-12zm70 -397l0 0c-27,0 -48,7 -61,23 -13,15 -20,43 -20,83 0,35 7,60 19,76 13,16 33,24 61,24 29,0 50,-8 64,-22 14,-14 21,-41 21,-80 0,-35 -7,-61 -21,-79 -14,-17 -35,-25 -63,-25z"/>
    <path class="fil0 str1" d="M4639 2651c54,0 93,13 119,38 26,26 39,67 39,126 0,25 -4,43 -14,53 -9,10 -29,15 -60,15l-191 0c0,47 10,84 28,111 19,27 51,40 97,40 43,0 84,-11 121,-34 12,13 18,26 18,40 0,19 -16,32 -47,40 -32,8 -68,12 -108,12 -74,0 -127,-16 -159,-47 -32,-31 -48,-84 -48,-158 0,-73 18,-130 54,-172 36,-43 87,-64 151,-64zm-16 58l0 0c-29,0 -51,10 -66,31 -15,21 -23,53 -25,97l45 0c47,0 79,-1 96,-3 18,-2 27,-5 30,-9 3,-5 4,-13 4,-25 0,-28 -7,-50 -21,-67 -15,-16 -36,-24 -63,-24z"/>
    <path class="fil0 str1" d="M4984 2709c28,-19 56,-33 84,-42 28,-9 53,-14 74,-14 39,0 68,9 87,27 20,18 29,52 29,101 0,155 2,237 7,247 4,9 15,13 31,13 3,8 5,17 5,25 0,8 -3,13 -8,16 -5,2 -14,3 -27,3 -40,0 -64,0 -73,-1 -9,-1 -15,-4 -19,-9 -3,-5 -4,-14 -4,-25l0 -187c0,-59 -7,-98 -19,-118 -13,-20 -33,-29 -61,-29 -24,0 -44,6 -62,20 -17,14 -26,38 -26,73l0 91c0,51 1,98 3,141l48 0c4,7 5,15 5,24 0,8 -1,13 -5,16 -3,3 -9,4 -18,4l-169 0c-4,-9 -6,-17 -6,-26 0,-6 2,-11 5,-14 3,-3 8,-4 15,-4l30 0c2,-46 4,-102 4,-169 0,-84 -4,-134 -10,-147 -7,-14 -20,-21 -38,-21 -4,-8 -6,-16 -6,-25 0,-7 3,-12 9,-15 6,-2 44,-4 115,-6 1,13 1,30 0,51z"/>
    <path class="fil0 str1" d="M5545 3094c-71,0 -121,-15 -151,-45 -30,-29 -45,-80 -45,-152 0,-80 19,-141 56,-183 38,-42 96,-63 173,-63 38,0 65,4 82,11 17,7 25,18 26,32 0,17 -6,33 -18,49 -44,-23 -80,-34 -111,-34 -40,0 -68,13 -85,38 -17,26 -26,66 -26,120 0,56 9,98 25,127 17,28 46,42 90,42 33,0 72,-11 115,-33 10,13 15,27 15,41 0,16 -15,28 -45,37 -30,9 -64,13 -101,13z"/>
    <path class="fil0 str1" d="M6128 2711c-14,42 -42,131 -84,267 -41,135 -72,216 -92,240 -20,24 -43,40 -68,47 -25,7 -54,10 -86,10 -31,0 -52,-2 -61,-6 -9,-5 -14,-14 -14,-26 0,-15 5,-29 15,-41 54,11 94,15 119,12 26,-3 51,-44 77,-123 -24,-1 -37,-2 -39,-4 -2,-1 -17,-50 -46,-145 -28,-96 -45,-154 -52,-176 -8,-21 -13,-35 -17,-44 -4,-8 -10,-13 -16,-15 -6,-2 -15,-3 -25,-3 -3,-9 -5,-18 -5,-26 0,-10 5,-16 14,-17 10,-2 30,-3 60,-3 23,0 39,1 47,4 8,3 13,8 16,15 4,7 8,28 15,61 6,34 20,89 41,167 21,78 33,117 35,117 3,0 16,-45 39,-135 24,-89 38,-148 41,-176l-23 0c-4,-8 -5,-17 -5,-26 0,-8 1,-14 5,-18 3,-3 8,-5 16,-5l122 0c3,8 5,17 5,26 0,9 -2,15 -5,18 -4,3 -11,5 -20,5l-9 0z"/>
   </g>
  </g>
 </g>
</svg>
